<svg xmlns="http://www.w3.org/2000/svg" xmlns:xlink="http://www.w3.org/1999/xlink" xmlns:lucid="lucid" width="366.67" height="240"><g transform="translate(-320 -240)" lucid:page-tab-id="0_0"><path d="M0 0h1870.4v1323.2H0z" fill="#fff"/><path d="M340 320h106.67v80H340z" stroke="#000" fill="#fff"/><use xlink:href="#a" transform="matrix(1,0,0,1,345,325) translate(34.05 38.6)"/><path d="M560 260h106.67v80H560z" stroke="#000" fill="#fff"/><use xlink:href="#b" transform="matrix(1,0,0,1,565,265) translate(24.599999999999998 38.6)"/><path d="M560 380h106.67v80H560z" stroke="#000" fill="#fff"/><use xlink:href="#c" transform="matrix(1,0,0,1,565,385) translate(25.5 38.6)"/><path d="M447.6 359.76l111.1-59.33" stroke="#000" fill="none"/><path d="M447.85 360.2l-.68.37v-1.14l.2-.1zM559.5 300l-10.83 17.8-.85-.5 9.95-16.37-19.14-.84.04-1z"/><use xlink:href="#d" transform="matrix(1,0,0,1,504.7904937037431,295.43183172983845) translate(0 14.4)"/><path d="M447.6 360.24l111.1 59.33M447.62 360.24l-.45-.24" stroke="#000" fill="none"/><path d="M559.5 420l-20.83.9-.04-1 19.14-.83-9.95-16.36.85-.5z"/><use xlink:href="#e" transform="matrix(1,0,0,1,489.5149403981814,402.1794356768211) translate(0 14.4)"/><defs><path d="M212-179c-10-28-35-45-73-45-59 0-87 40-87 99 0 60 29 101 89 101 43 0 62-24 78-52l27 14C228-24 195 4 139 4 59 4 22-46 18-125c-6-104 99-153 187-111 19 9 31 26 39 46" id="f"/><path d="M141-36C126-15 110 5 73 4 37 3 15-17 15-53c-1-64 63-63 125-63 3-35-9-54-41-54-24 1-41 7-42 31l-33-3c5-37 33-52 76-52 45 0 72 20 72 64v82c-1 20 7 32 28 27v20c-31 9-61-2-59-35zM48-53c0 20 12 33 32 33 41-3 63-29 60-74-43 2-92-5-92 41" id="g"/><path d="M114-163C36-179 61-72 57 0H25l-1-190h30c1 12-1 29 2 39 6-27 23-49 58-41v29" id="h"/><g id="a"><use transform="matrix(0.05,0,0,0.05,0,0)" xlink:href="#f"/><use transform="matrix(0.05,0,0,0.05,12.950000000000001,0)" xlink:href="#g"/><use transform="matrix(0.05,0,0,0.05,22.950000000000003,0)" xlink:href="#h"/></g><path d="M30-248c118-7 216 8 213 122C240-48 200 0 122 0H30v-248zM63-27c89 8 146-16 146-99s-60-101-146-95v194" id="i"/><path d="M24-231v-30h32v30H24zM24 0v-190h32V0H24" id="j"/><path d="M108 0H70L1-190h34L89-25l56-165h34" id="k"/><path d="M100-194c63 0 86 42 84 106H49c0 40 14 67 53 68 26 1 43-12 49-29l28 8c-11 28-37 45-77 45C44 4 14-33 15-96c1-61 26-98 85-98zm52 81c6-60-76-77-97-28-3 7-6 17-6 28h103" id="l"/><g id="b"><use transform="matrix(0.05,0,0,0.05,0,0)" xlink:href="#i"/><use transform="matrix(0.05,0,0,0.05,12.950000000000001,0)" xlink:href="#h"/><use transform="matrix(0.05,0,0,0.05,18.900000000000002,0)" xlink:href="#j"/><use transform="matrix(0.05,0,0,0.05,22.85,0)" xlink:href="#k"/><use transform="matrix(0.05,0,0,0.05,31.85,0)" xlink:href="#l"/><use transform="matrix(0.05,0,0,0.05,41.85,0)" xlink:href="#h"/></g><path d="M185-189c-5-48-123-54-124 2 14 75 158 14 163 119 3 78-121 87-175 55-17-10-28-26-33-46l33-7c5 56 141 63 141-1 0-78-155-14-162-118-5-82 145-84 179-34 5 7 8 16 11 25" id="m"/><path d="M59-47c-2 24 18 29 38 22v24C64 9 27 4 27-40v-127H5v-23h24l9-43h21v43h35v23H59v120" id="n"/><path d="M135-143c-3-34-86-38-87 0 15 53 115 12 119 90S17 21 10-45l28-5c4 36 97 45 98 0-10-56-113-15-118-90-4-57 82-63 122-42 12 7 21 19 24 35" id="o"/><g id="c"><use transform="matrix(0.05,0,0,0.05,0,0)" xlink:href="#m"/><use transform="matrix(0.05,0,0,0.05,12,0)" xlink:href="#l"/><use transform="matrix(0.05,0,0,0.05,22,0)" xlink:href="#g"/><use transform="matrix(0.05,0,0,0.05,32,0)" xlink:href="#n"/><use transform="matrix(0.05,0,0,0.05,37,0)" xlink:href="#o"/></g><path d="M26 75v-336h71v23H56V52h41v23H26" id="p"/><path d="M27 0v-27h64v-190l-56 39v-29l58-41h29v221h61V0H27" id="q"/><path d="M3 75V52h41v-290H3v-23h71V75H3" id="r"/><g id="d"><use transform="matrix(0.05,0,0,0.05,0,0)" xlink:href="#p"/><use transform="matrix(0.05,0,0,0.05,5,0)" xlink:href="#q"/><use transform="matrix(0.05,0,0,0.05,15,0)" xlink:href="#r"/></g><path d="M33 0v-38h34V0H33" id="s"/><path d="M80-196l47-18 7 23-49 13 32 44-20 13-27-46-27 45-21-12 33-44-49-13 8-23 47 19-2-53h23" id="t"/><g id="e"><use transform="matrix(0.05,0,0,0.05,0,0)" xlink:href="#p"/><use transform="matrix(0.05,0,0,0.05,5,0)" xlink:href="#q"/><use transform="matrix(0.05,0,0,0.05,15,0)" xlink:href="#s"/><use transform="matrix(0.05,0,0,0.05,20,0)" xlink:href="#s"/><use transform="matrix(0.05,0,0,0.05,25,0)" xlink:href="#t"/><use transform="matrix(0.05,0,0,0.05,32,0)" xlink:href="#r"/></g></defs></g></svg>