<svg xmlns="http://www.w3.org/2000/svg" xmlns:xlink="http://www.w3.org/1999/xlink" xmlns:lucid="lucid" width="740" height="309.8"><g transform="translate(-100 -180)" lucid:page-tab-id="NNGItr~37WJN"><path d="M0 0h1870.4v1323.2H0z" fill="#fff"/><path d="M280 260h106.67v80H280z" stroke="#000" fill="#fff"/><use xlink:href="#a" transform="matrix(1,0,0,1,285,265) translate(19.549999999999997 38.6)"/><path d="M560 260h106.67v80H560z" stroke="#000" fill="#fff"/><use xlink:href="#b" transform="matrix(1,0,0,1,565,265) translate(34.05 38.6)"/><path d="M387.67 300h155.45" stroke="#000" fill="none"/><path d="M387.68 300.5h-.5v-1h.5z"/><path d="M557.88 300l-14.26 4.64v-9.28z" fill="#fff"/><path d="M559.5 300l-16.38 5.32v-10.64zm-15.38 3.95l12.14-3.95-12.14-3.95z"/><path d="M280 200h386.67v60H280z" stroke="#000" stroke-opacity="0" stroke-width="2" fill="#fff" fill-opacity="0"/><use xlink:href="#c" transform="matrix(1,0,0,1,285,205) translate(119.13888888888889 29)"/><use xlink:href="#d" transform="matrix(1,0,0,1,285,205) translate(177.97222222222223 29)"/><path d="M120 260h80v40h-80z" stroke="#000" stroke-opacity="0" stroke-width="2" fill="#fff" fill-opacity="0"/><use xlink:href="#e" transform="matrix(1,0,0,1,125,265) translate(18.14999999999999 14.4)"/><use xlink:href="#f" transform="matrix(1,0,0,1,125,265) translate(57.05 14.4)"/><use xlink:href="#g" transform="matrix(1,0,0,1,125,265) translate(14.049999999999997 36)"/><use xlink:href="#h" transform="matrix(1,0,0,1,125,265) translate(29.049999999999997 36)"/><path d="M200.5 280.1l63.05 14.82" stroke="#b2b2b2" fill="none"/><path d="M200.6 279.63l-.22.97-.38-.1v-1z" fill="#b2b2b2"/><path d="M277.92 298.3l-14.94 1.25 2.12-9.03z" stroke="#b2b2b2" fill="#b2b2b2"/><path d="M560 360h106.67v80H560z" stroke="#000" fill="#fff"/><use xlink:href="#i" transform="matrix(1,0,0,1,565,365) translate(26.375 38.6)"/><path d="M387.6 300.25l157.73 91.53M387.6 300.26l-.43-.26" stroke="#000" fill="none"/><path d="M558.1 399.2l-14.66-3.16 4.65-8.02z" fill="#fff"/><path d="M559.5 400l-16.84-3.62 5.34-9.2zm-15.3-4.3l12.5 2.68-8.52-9.52z"/><path d="M740 260h80v40h-80z" stroke="#000" stroke-opacity="0" stroke-width="2" fill="#fff" fill-opacity="0"/><use xlink:href="#e" transform="matrix(1,0,0,1,745,265) translate(0 14.4)"/><use xlink:href="#f" transform="matrix(1,0,0,1,745,265) translate(38.900000000000006 14.4)"/><use xlink:href="#g" transform="matrix(1,0,0,1,745,265) translate(0 36)"/><use xlink:href="#h" transform="matrix(1,0,0,1,745,265) translate(15 36)"/><path d="M739.52 280.13l-56.55 15.53" stroke="#b2b2b2" fill="none"/><path d="M740 280.52l-.36.1-.27-.97.63-.17z" fill="#b2b2b2"/><path d="M668.73 299.57l12.53-8.25 2.45 8.94z" stroke="#b2b2b2" fill="#b2b2b2"/><path d="M739.5 360h80v40h-80z" stroke="#000" stroke-opacity="0" stroke-width="2" fill="#fff" fill-opacity="0"/><use xlink:href="#e" transform="matrix(1,0,0,1,744.4999996666667,365) translate(0 14.4)"/><use xlink:href="#f" transform="matrix(1,0,0,1,744.4999996666667,365) translate(38.900000000000006 14.4)"/><use xlink:href="#g" transform="matrix(1,0,0,1,744.4999996666667,365) translate(0 36)"/><use xlink:href="#h" transform="matrix(1,0,0,1,744.4999996666667,365) translate(15 36)"/><path d="M739.02 380.13l-56.06 15.5" stroke="#b2b2b2" fill="none"/><path d="M739.5 380.52l-.36.1-.27-.97.63-.17zM683.7 400.23l-14.97-.66 12.5-8.27z" fill="#b2b2b2"/><path d="M684.38 400.76l-17.2-.76 14.36-9.5zm-14.1-1.62l12.77.56-2.1-7.6z" fill="#b2b2b2"/><path d="M240 330.2h180v139.6H240z" stroke="#000" stroke-opacity="0" stroke-width="2" fill="#fff" fill-opacity="0"/><g><use xlink:href="#e" transform="matrix(1,0,0,1,245,335.20000000000005) translate(13.350000000000023 57.8)"/><use xlink:href="#j" transform="matrix(1,0,0,1,245,335.20000000000005) translate(52.25000000000003 57.8)"/><use xlink:href="#k" transform="matrix(1,0,0,1,245,335.20000000000005) translate(102.10000000000002 57.8)"/><use xlink:href="#l" transform="matrix(1,0,0,1,245,335.20000000000005) translate(161.05 57.8)"/><use xlink:href="#m" transform="matrix(1,0,0,1,245,335.20000000000005) translate(22.149999999999977 79.4)"/><use xlink:href="#n" transform="matrix(1,0,0,1,245,335.20000000000005) translate(40.09999999999998 79.4)"/><use xlink:href="#o" transform="matrix(1,0,0,1,245,335.20000000000005) translate(55.09999999999998 79.4)"/><use xlink:href="#p" transform="matrix(1,0,0,1,245,335.20000000000005) translate(94.09999999999998 79.4)"/><use xlink:href="#q" transform="matrix(1,0,0,1,245,335.20000000000005) translate(114.09999999999998 79.4)"/></g><path d="M420.47 399.84l44-14.66" stroke="#b2b2b2" fill="none"/><path d="M420.64 400.3l-.64.23v-1.06l.33-.1z" fill="#b2b2b2"/><path d="M478.46 380.5l-12.06 8.92-2.93-8.8z" stroke="#b2b2b2" fill="#b2b2b2"/><defs><path d="M137 0h-34L2-248h35l83 218 83-218h36" id="r"/><path d="M100-194c63 0 86 42 84 106H49c0 40 14 67 53 68 26 1 43-12 49-29l28 8c-11 28-37 45-77 45C44 4 14-33 15-96c1-61 26-98 85-98zm52 81c6-60-76-77-97-28-3 7-6 17-6 28h103" id="s"/><path d="M106-169C34-169 62-67 57 0H25v-261h32l-1 103c12-21 28-36 61-36 89 0 53 116 60 194h-32v-121c2-32-8-49-39-48" id="t"/><path d="M24-231v-30h32v30H24zM24 0v-190h32V0H24" id="u"/><path d="M96-169c-40 0-48 33-48 73s9 75 48 75c24 0 41-14 43-38l32 2c-6 37-31 61-74 61-59 0-76-41-82-99-10-93 101-131 147-64 4 7 5 14 7 22l-32 3c-4-21-16-35-41-35" id="v"/><path d="M24 0v-261h32V0H24" id="w"/><g id="a"><use transform="matrix(0.05,0,0,0.05,0,0)" xlink:href="#r"/><use transform="matrix(0.05,0,0,0.05,11,0)" xlink:href="#s"/><use transform="matrix(0.05,0,0,0.05,21,0)" xlink:href="#t"/><use transform="matrix(0.05,0,0,0.05,31,0)" xlink:href="#u"/><use transform="matrix(0.05,0,0,0.05,34.95,0)" xlink:href="#v"/><use transform="matrix(0.05,0,0,0.05,43.95,0)" xlink:href="#w"/><use transform="matrix(0.05,0,0,0.05,47.900000000000006,0)" xlink:href="#s"/></g><path d="M212-179c-10-28-35-45-73-45-59 0-87 40-87 99 0 60 29 101 89 101 43 0 62-24 78-52l27 14C228-24 195 4 139 4 59 4 22-46 18-125c-6-104 99-153 187-111 19 9 31 26 39 46" id="x"/><path d="M141-36C126-15 110 5 73 4 37 3 15-17 15-53c-1-64 63-63 125-63 3-35-9-54-41-54-24 1-41 7-42 31l-33-3c5-37 33-52 76-52 45 0 72 20 72 64v82c-1 20 7 32 28 27v20c-31 9-61-2-59-35zM48-53c0 20 12 33 32 33 41-3 63-29 60-74-43 2-92-5-92 41" id="y"/><path d="M114-163C36-179 61-72 57 0H25l-1-190h30c1 12-1 29 2 39 6-27 23-49 58-41v29" id="z"/><g id="b"><use transform="matrix(0.05,0,0,0.05,0,0)" xlink:href="#x"/><use transform="matrix(0.05,0,0,0.05,12.950000000000001,0)" xlink:href="#y"/><use transform="matrix(0.05,0,0,0.05,22.950000000000003,0)" xlink:href="#z"/></g><path d="M67-125c0 53 21 87 73 88 37 1 54-22 65-47l45 17C233-25 199 4 140 4 58 4 20-42 15-125 8-235 124-281 211-232c18 10 29 29 36 50l-46 12c-8-25-30-41-62-41-52 0-71 34-72 86" id="A"/><path d="M25 0v-261h50V0H25" id="B"/><path d="M133-34C117-15 103 5 69 4 32 3 11-16 11-54c-1-60 55-63 116-61 1-26-3-47-28-47-18 1-26 9-28 27l-52-2c7-38 36-58 82-57s74 22 75 68l1 82c-1 14 12 18 25 15v27c-30 8-71 5-69-32zm-48 3c29 0 43-24 42-57-32 0-66-3-65 30 0 17 8 27 23 27" id="C"/><path d="M137-138c1-29-70-34-71-4 15 46 118 7 119 86 1 83-164 76-172 9l43-7c4 19 20 25 44 25 33 8 57-30 24-41C81-84 22-81 20-136c-2-80 154-74 161-7" id="D"/><g id="c"><use transform="matrix(0.05555555555555555,0,0,0.05555555555555555,0,0)" xlink:href="#A"/><use transform="matrix(0.05555555555555555,0,0,0.05555555555555555,14.388888888888888,0)" xlink:href="#B"/><use transform="matrix(0.05555555555555555,0,0,0.05555555555555555,19.944444444444443,0)" xlink:href="#C"/><use transform="matrix(0.05555555555555555,0,0,0.05555555555555555,31.055555555555554,0)" xlink:href="#D"/><use transform="matrix(0.05555555555555555,0,0,0.05555555555555555,42.166666666666664,0)" xlink:href="#D"/></g><path d="M24-248c120-7 223 5 221 122C244-46 201 0 124 0H24v-248zM76-40c74 7 117-18 117-86 0-67-45-88-117-82v168" id="E"/><path d="M25-224v-37h50v37H25zM25 0v-190h50V0H25" id="F"/><path d="M195-6C206 82 75 100 31 46c-4-6-6-13-8-21l49-6c3 16 16 24 34 25 40 0 42-37 40-79-11 22-30 35-61 35-53 0-70-43-70-97 0-56 18-96 73-97 30 0 46 14 59 34l2-30h47zm-90-29c32 0 41-27 41-63 0-35-9-62-40-62-32 0-39 29-40 63 0 36 9 62 39 62" id="G"/><path d="M135-150c-39-12-60 13-60 57V0H25l-1-190h47c2 13-1 29 3 40 6-28 27-53 61-41v41" id="H"/><path d="M220-157c-53 9-28 100-34 157h-49v-107c1-27-5-49-29-50C55-147 81-57 75 0H25l-1-190h47c2 12-1 28 3 38 10-53 101-56 108 0 13-22 24-43 59-42 82 1 51 116 57 194h-49v-107c-1-25-5-48-29-50" id="I"/><g id="d"><use transform="matrix(0.05555555555555555,0,0,0.05555555555555555,0,0)" xlink:href="#E"/><use transform="matrix(0.05555555555555555,0,0,0.05555555555555555,14.388888888888888,0)" xlink:href="#F"/><use transform="matrix(0.05555555555555555,0,0,0.05555555555555555,19.944444444444443,0)" xlink:href="#C"/><use transform="matrix(0.05555555555555555,0,0,0.05555555555555555,31.055555555555554,0)" xlink:href="#G"/><use transform="matrix(0.05555555555555555,0,0,0.05555555555555555,43.22222222222222,0)" xlink:href="#H"/><use transform="matrix(0.05555555555555555,0,0,0.05555555555555555,51,0)" xlink:href="#C"/><use transform="matrix(0.05555555555555555,0,0,0.05555555555555555,62.11111111111112,0)" xlink:href="#I"/></g><path fill="#666" d="M151-220L108 0H75l42-220H32l6-28h203l-5 28h-85" id="J"/><path fill="#666" d="M67-158c15-20 31-36 64-36 94 0 33 127 27 194h-32l25-140c3-38-53-32-70-12C52-117 51-51 37 0H6l51-261h31" id="K"/><path fill="#666" d="M50-231l6-30h32l-6 30H50zM6 0l37-190h31L37 0H6" id="L"/><path fill="#666" d="M55-144c13 50 104 24 104 88C159 21 15 23 1-39l26-10c6 40 102 42 102-4-13-50-104-23-104-87 0-71 143-71 148-8l-29 4c-5-35-85-37-89 0" id="M"/><g id="e"><use transform="matrix(0.05,0,0,0.05,0,0)" xlink:href="#J"/><use transform="matrix(0.05,0,0,0.05,10.950000000000001,0)" xlink:href="#K"/><use transform="matrix(0.05,0,0,0.05,20.950000000000003,0)" xlink:href="#L"/><use transform="matrix(0.05,0,0,0.05,24.900000000000002,0)" xlink:href="#M"/></g><g id="f"><use transform="matrix(0.05,0,0,0.05,0,0)" xlink:href="#L"/><use transform="matrix(0.05,0,0,0.05,3.95,0)" xlink:href="#M"/></g><path fill="#666" d="M165-48c-4 18 1 34 23 27l-3 20c-29 8-62 0-52-35h-2C116-14 99 4 63 4 30 4 8-16 8-49c0-68 71-67 138-67 10-26 0-56-31-54-26 1-42 9-47 31l-32-5c8-67 160-71 144 15-5 28-9 54-15 81zM42-50c3 52 80 24 89-6 7-12 7-24 11-38-47 1-103-4-100 44" id="N"/><use transform="matrix(0.05,0,0,0.05,0,0)" xlink:href="#N" id="g"/><path fill="#666" d="M44-68c0 29 11 47 38 47 30 0 42-19 51-41l28 9C148-21 126 4 82 4 31 4 10-29 12-85c3-77 74-140 146-93 12 8 15 23 18 40l-31 5c-1-22-13-36-36-36-52 0-65 49-65 101" id="O"/><path fill="#666" d="M6 0l50-261h32L37 0H6" id="P"/><g id="h"><use transform="matrix(0.05,0,0,0.05,0,0)" xlink:href="#O"/><use transform="matrix(0.05,0,0,0.05,9,0)" xlink:href="#P"/><use transform="matrix(0.05,0,0,0.05,12.949999999999998,0)" xlink:href="#N"/><use transform="matrix(0.05,0,0,0.05,22.95,0)" xlink:href="#M"/><use transform="matrix(0.05,0,0,0.05,31.950000000000003,0)" xlink:href="#M"/></g><path d="M127-220V0H93v-220H8v-28h204v28h-85" id="Q"/><path d="M84 4C-5 8 30-112 23-190h32v120c0 31 7 50 39 49 72-2 45-101 50-169h31l1 190h-30c-1-10 1-25-2-33-11 22-28 36-60 37" id="R"/><path d="M143 0L79-87 56-68V0H24v-261h32v163l83-92h37l-77 82L181 0h-38" id="S"/><g id="i"><use transform="matrix(0.05,0,0,0.05,0,0)" xlink:href="#Q"/><use transform="matrix(0.05,0,0,0.05,10.3,0)" xlink:href="#z"/><use transform="matrix(0.05,0,0,0.05,16.25,0)" xlink:href="#R"/><use transform="matrix(0.05,0,0,0.05,26.25,0)" xlink:href="#v"/><use transform="matrix(0.05,0,0,0.05,35.25,0)" xlink:href="#S"/></g><path fill="#666" d="M66-151c12-25 30-51 66-40l-6 26C45-176 58-65 38 0H6l36-190h30" id="T"/><path fill="#666" d="M30-147c31-64 166-65 159 27C183-49 158 1 86 4 9 8 1-88 30-147zM88-20c53 0 68-48 68-100 0-31-11-51-44-50-52 1-68 46-68 97 0 32 13 53 44 53" id="U"/><path fill="#666" d="M188 0h-37l-8-164L71 0H34L18-190h31l8 164 75-164h34l8 164 74-164h31" id="V"/><g id="j"><use transform="matrix(0.05,0,0,0.05,0,0)" xlink:href="#N"/><use transform="matrix(0.05,0,0,0.05,10,0)" xlink:href="#T"/><use transform="matrix(0.05,0,0,0.05,15.949999999999998,0)" xlink:href="#T"/><use transform="matrix(0.05,0,0,0.05,21.9,0)" xlink:href="#U"/><use transform="matrix(0.05,0,0,0.05,31.899999999999995,0)" xlink:href="#V"/></g><path fill="#666" d="M248-111c6-24 9-61-24-58-72 9-57 108-77 169h-31l26-142c3-37-50-30-64-10C52-115 50-51 37 0H6l36-190h30c-1 10-6 24-4 32 13-43 101-52 105 5 13-22 29-41 61-41 90 0 28 129 23 194h-31" id="W"/><path fill="#666" d="M111-194c62-3 86 47 72 106H45c-7 38 6 69 45 68 27-1 43-14 53-32l24 11C152-15 129 4 87 4 38 3 12-23 12-71c0-70 32-119 99-123zm44 81c14-66-71-72-95-28-4 8-8 17-11 28h106" id="X"/><path fill="#666" d="M67-158c22-48 132-52 116 29L158 0h-32l25-140c3-38-53-32-70-12C52-117 51-52 38 0H6l36-190h30" id="Y"/><g id="k"><use transform="matrix(0.05,0,0,0.05,0,0)" xlink:href="#W"/><use transform="matrix(0.05,0,0,0.05,14.950000000000001,0)" xlink:href="#X"/><use transform="matrix(0.05,0,0,0.05,24.950000000000003,0)" xlink:href="#N"/><use transform="matrix(0.05,0,0,0.05,34.95,0)" xlink:href="#Y"/><use transform="matrix(0.05,0,0,0.05,44.95,0)" xlink:href="#M"/></g><path fill="#666" d="M51-54c-9 22 5 41 31 30L79-1C43 14 10-4 19-52l22-115H19l5-23h22l19-43h21l-9 43h35l-4 23H73" id="Z"/><g id="l"><use transform="matrix(0.05,0,0,0.05,0,0)" xlink:href="#L"/><use transform="matrix(0.05,0,0,0.05,3.95,0)" xlink:href="#Z"/></g><g id="m"><use transform="matrix(0.05,0,0,0.05,0,0)" xlink:href="#L"/><use transform="matrix(0.05,0,0,0.05,3.95,0)" xlink:href="#M"/></g><use transform="matrix(0.05,0,0,0.05,0,0)" xlink:href="#N" id="n"/><path fill="#666" d="M198-190L69 30C53 58 25 83-20 72c4-11-1-27 19-22 33-1 43-29 59-52L20-190h32L79-34l84-156h35" id="aa"/><path fill="#666" d="M67-162c32-53 139-36 121 50C175-51 163 2 97 4 68 4 52-11 42-31 38 6 28 39 22 75H-9l50-265h29c-1 10 0 20-3 28zm89 36c0-26-10-43-35-43-54 0-67 50-69 103-1 29 14 45 42 46 53 0 62-58 62-106" id="ab"/><g id="o"><use transform="matrix(0.05,0,0,0.05,0,0)" xlink:href="#Z"/><use transform="matrix(0.05,0,0,0.05,5,0)" xlink:href="#aa"/><use transform="matrix(0.05,0,0,0.05,14,0)" xlink:href="#ab"/><use transform="matrix(0.05,0,0,0.05,24,0)" xlink:href="#X"/></g><path fill="#666" d="M76-167L44 0H12l33-167H18l4-23h27c3-47 25-81 82-69l-4 24c-35-8-44 15-46 45h37l-5 23H76" id="ac"/><g id="p"><use transform="matrix(0.05,0,0,0.05,0,0)" xlink:href="#U"/><use transform="matrix(0.05,0,0,0.05,10,0)" xlink:href="#ac"/></g><path fill="#666" d="M89 0H52L20-190h33L74-25l89-165h34" id="ad"/><g id="q"><use transform="matrix(0.05,0,0,0.05,0,0)" xlink:href="#ad"/><use transform="matrix(0.05,0,0,0.05,9,0)" xlink:href="#X"/><use transform="matrix(0.05,0,0,0.05,19,0)" xlink:href="#K"/><use transform="matrix(0.05,0,0,0.05,29,0)" xlink:href="#L"/><use transform="matrix(0.05,0,0,0.05,32.95,0)" xlink:href="#O"/><use transform="matrix(0.05,0,0,0.05,41.95,0)" xlink:href="#P"/><use transform="matrix(0.05,0,0,0.05,45.900000000000006,0)" xlink:href="#X"/></g></defs></g></svg>