<svg xmlns="http://www.w3.org/2000/svg" xmlns:xlink="http://www.w3.org/1999/xlink" xmlns:lucid="lucid" width="660" height="340"><g transform="translate(-160 -180)" lucid:page-tab-id="NNGItr~37WJN"><path d="M0 0h1870.4v1323.2H0z" fill="#fff"/><path d="M326.67 260h106.66v80H326.67z" stroke="#000" fill="#fff"/><use xlink:href="#a" transform="matrix(1,0,0,1,331.66666666666663,265) translate(19.549999999999997 38.6)"/><path d="M540 260h106.67v80H540z" stroke="#000" fill="#fff"/><use xlink:href="#b" transform="matrix(1,0,0,1,545,265) translate(34.05 38.6)"/><path d="M539 300h-82.17" stroke="#000" fill="none"/><path d="M539.5 300.5h-.5v-1h.5z"/><path d="M456.33 312.73L434.83 300l21.5-12.73z" fill="#fff"/><path d="M456.83 313.6l-23-13.6 23-13.6zM435.8 300l20.03 11.85v-23.7z"/><path d="M280 200h386.67v60H280z" stroke="#000" stroke-opacity="0" stroke-width="2" fill="#fff" fill-opacity="0"/><use xlink:href="#c" transform="matrix(1,0,0,1,285,205) translate(119.13888888888889 29)"/><use xlink:href="#d" transform="matrix(1,0,0,1,285,205) translate(177.97222222222223 29)"/><path d="M180 271h80v40h-80z" stroke="#000" stroke-opacity="0" stroke-width="2" fill="#fff" fill-opacity="0"/><use xlink:href="#e" transform="matrix(1,0,0,1,185,276) translate(18.14999999999999 14.4)"/><use xlink:href="#f" transform="matrix(1,0,0,1,185,276) translate(57.05 14.4)"/><use xlink:href="#g" transform="matrix(1,0,0,1,185,276) translate(14.049999999999997 36)"/><use xlink:href="#h" transform="matrix(1,0,0,1,185,276) translate(29.049999999999997 36)"/><path d="M260.5 291.07l49.43 6.72" stroke="#b2b2b2" fill="none"/><path d="M260.58 290.57l-.14 1-.44-.07v-1zM324.56 299.78l-14.76 2.67 1.25-9.18z" fill="#b2b2b2"/><path d="M326.17 300l-16.96 3.07 1.45-10.55zm-15.78 1.84l12.56-2.28-11.5-5.54z" fill="#b2b2b2"/><path d="M326.67 420h106.66v80H326.67z" stroke="#000" fill="#fff"/><use xlink:href="#i" transform="matrix(1,0,0,1,331.66666666666663,425) translate(26.375 38.6)"/><path d="M380 419v-55.5" stroke="#000" fill="none"/><path d="M380.5 419.5h-1v-.5h1z"/><path d="M392.73 363h-25.46L380 341.48z" fill="#fff"/><path d="M393.6 363.5h-27.2l13.6-23zm-25.45-1h23.7L380 342.46z"/><path d="M720 271h80v40h-80z" stroke="#000" stroke-opacity="0" stroke-width="2" fill="#fff" fill-opacity="0"/><use xlink:href="#e" transform="matrix(1,0,0,1,725,276) translate(0 14.4)"/><use xlink:href="#f" transform="matrix(1,0,0,1,725,276) translate(38.900000000000006 14.4)"/><use xlink:href="#g" transform="matrix(1,0,0,1,725,276) translate(0 36)"/><use xlink:href="#h" transform="matrix(1,0,0,1,725,276) translate(15 36)"/><path d="M719.5 291.06L663.43 298" stroke="#b2b2b2" fill="none"/><path d="M720 291.5l-.45.06-.12-1 .57-.06zM663.5 302.65l-14.73-2.85 13.6-6.35z" fill="#b2b2b2"/><path d="M664.08 303.27l-16.9-3.27 15.6-7.3zm-13.7-3.67l12.54 2.43-.97-7.83z" fill="#b2b2b2"/><path d="M500 452h80v40h-80z" stroke="#000" stroke-opacity="0" stroke-width="2" fill="#fff" fill-opacity="0"/><g><use xlink:href="#e" transform="matrix(1,0,0,1,505,457) translate(0 14.4)"/><use xlink:href="#f" transform="matrix(1,0,0,1,505,457) translate(38.900000000000006 14.4)"/><use xlink:href="#g" transform="matrix(1,0,0,1,505,457) translate(0 36)"/><use xlink:href="#h" transform="matrix(1,0,0,1,505,457) translate(15 36)"/></g><path d="M499.5 471.9l-49.55-8.98" stroke="#b2b2b2" fill="none"/><path d="M500 471.5v1l-.6-.1.18-.98zM448.64 467.4l-13.2-7.1 14.85-2.03z" fill="#b2b2b2"/><path d="M449 468.16L433.83 460l17.07-2.3zm-11.98-7.58l11.25 6.05 1.4-7.77z" fill="#b2b2b2"/><defs><path d="M137 0h-34L2-248h35l83 218 83-218h36" id="j"/><path d="M100-194c63 0 86 42 84 106H49c0 40 14 67 53 68 26 1 43-12 49-29l28 8c-11 28-37 45-77 45C44 4 14-33 15-96c1-61 26-98 85-98zm52 81c6-60-76-77-97-28-3 7-6 17-6 28h103" id="k"/><path d="M106-169C34-169 62-67 57 0H25v-261h32l-1 103c12-21 28-36 61-36 89 0 53 116 60 194h-32v-121c2-32-8-49-39-48" id="l"/><path d="M24-231v-30h32v30H24zM24 0v-190h32V0H24" id="m"/><path d="M96-169c-40 0-48 33-48 73s9 75 48 75c24 0 41-14 43-38l32 2c-6 37-31 61-74 61-59 0-76-41-82-99-10-93 101-131 147-64 4 7 5 14 7 22l-32 3c-4-21-16-35-41-35" id="n"/><path d="M24 0v-261h32V0H24" id="o"/><g id="a"><use transform="matrix(0.05,0,0,0.05,0,0)" xlink:href="#j"/><use transform="matrix(0.05,0,0,0.05,11,0)" xlink:href="#k"/><use transform="matrix(0.05,0,0,0.05,21,0)" xlink:href="#l"/><use transform="matrix(0.05,0,0,0.05,31,0)" xlink:href="#m"/><use transform="matrix(0.05,0,0,0.05,34.95,0)" xlink:href="#n"/><use transform="matrix(0.05,0,0,0.05,43.95,0)" xlink:href="#o"/><use transform="matrix(0.05,0,0,0.05,47.900000000000006,0)" xlink:href="#k"/></g><path d="M212-179c-10-28-35-45-73-45-59 0-87 40-87 99 0 60 29 101 89 101 43 0 62-24 78-52l27 14C228-24 195 4 139 4 59 4 22-46 18-125c-6-104 99-153 187-111 19 9 31 26 39 46" id="p"/><path d="M141-36C126-15 110 5 73 4 37 3 15-17 15-53c-1-64 63-63 125-63 3-35-9-54-41-54-24 1-41 7-42 31l-33-3c5-37 33-52 76-52 45 0 72 20 72 64v82c-1 20 7 32 28 27v20c-31 9-61-2-59-35zM48-53c0 20 12 33 32 33 41-3 63-29 60-74-43 2-92-5-92 41" id="q"/><path d="M114-163C36-179 61-72 57 0H25l-1-190h30c1 12-1 29 2 39 6-27 23-49 58-41v29" id="r"/><g id="b"><use transform="matrix(0.05,0,0,0.05,0,0)" xlink:href="#p"/><use transform="matrix(0.05,0,0,0.05,12.950000000000001,0)" xlink:href="#q"/><use transform="matrix(0.05,0,0,0.05,22.950000000000003,0)" xlink:href="#r"/></g><path d="M67-125c0 53 21 87 73 88 37 1 54-22 65-47l45 17C233-25 199 4 140 4 58 4 20-42 15-125 8-235 124-281 211-232c18 10 29 29 36 50l-46 12c-8-25-30-41-62-41-52 0-71 34-72 86" id="s"/><path d="M25 0v-261h50V0H25" id="t"/><path d="M133-34C117-15 103 5 69 4 32 3 11-16 11-54c-1-60 55-63 116-61 1-26-3-47-28-47-18 1-26 9-28 27l-52-2c7-38 36-58 82-57s74 22 75 68l1 82c-1 14 12 18 25 15v27c-30 8-71 5-69-32zm-48 3c29 0 43-24 42-57-32 0-66-3-65 30 0 17 8 27 23 27" id="u"/><path d="M137-138c1-29-70-34-71-4 15 46 118 7 119 86 1 83-164 76-172 9l43-7c4 19 20 25 44 25 33 8 57-30 24-41C81-84 22-81 20-136c-2-80 154-74 161-7" id="v"/><g id="c"><use transform="matrix(0.05555555555555555,0,0,0.05555555555555555,0,0)" xlink:href="#s"/><use transform="matrix(0.05555555555555555,0,0,0.05555555555555555,14.388888888888888,0)" xlink:href="#t"/><use transform="matrix(0.05555555555555555,0,0,0.05555555555555555,19.944444444444443,0)" xlink:href="#u"/><use transform="matrix(0.05555555555555555,0,0,0.05555555555555555,31.055555555555554,0)" xlink:href="#v"/><use transform="matrix(0.05555555555555555,0,0,0.05555555555555555,42.166666666666664,0)" xlink:href="#v"/></g><path d="M24-248c120-7 223 5 221 122C244-46 201 0 124 0H24v-248zM76-40c74 7 117-18 117-86 0-67-45-88-117-82v168" id="w"/><path d="M25-224v-37h50v37H25zM25 0v-190h50V0H25" id="x"/><path d="M195-6C206 82 75 100 31 46c-4-6-6-13-8-21l49-6c3 16 16 24 34 25 40 0 42-37 40-79-11 22-30 35-61 35-53 0-70-43-70-97 0-56 18-96 73-97 30 0 46 14 59 34l2-30h47zm-90-29c32 0 41-27 41-63 0-35-9-62-40-62-32 0-39 29-40 63 0 36 9 62 39 62" id="y"/><path d="M135-150c-39-12-60 13-60 57V0H25l-1-190h47c2 13-1 29 3 40 6-28 27-53 61-41v41" id="z"/><path d="M220-157c-53 9-28 100-34 157h-49v-107c1-27-5-49-29-50C55-147 81-57 75 0H25l-1-190h47c2 12-1 28 3 38 10-53 101-56 108 0 13-22 24-43 59-42 82 1 51 116 57 194h-49v-107c-1-25-5-48-29-50" id="A"/><g id="d"><use transform="matrix(0.05555555555555555,0,0,0.05555555555555555,0,0)" xlink:href="#w"/><use transform="matrix(0.05555555555555555,0,0,0.05555555555555555,14.388888888888888,0)" xlink:href="#x"/><use transform="matrix(0.05555555555555555,0,0,0.05555555555555555,19.944444444444443,0)" xlink:href="#u"/><use transform="matrix(0.05555555555555555,0,0,0.05555555555555555,31.055555555555554,0)" xlink:href="#y"/><use transform="matrix(0.05555555555555555,0,0,0.05555555555555555,43.22222222222222,0)" xlink:href="#z"/><use transform="matrix(0.05555555555555555,0,0,0.05555555555555555,51,0)" xlink:href="#u"/><use transform="matrix(0.05555555555555555,0,0,0.05555555555555555,62.11111111111112,0)" xlink:href="#A"/></g><path fill="#666" d="M151-220L108 0H75l42-220H32l6-28h203l-5 28h-85" id="B"/><path fill="#666" d="M67-158c15-20 31-36 64-36 94 0 33 127 27 194h-32l25-140c3-38-53-32-70-12C52-117 51-51 37 0H6l51-261h31" id="C"/><path fill="#666" d="M50-231l6-30h32l-6 30H50zM6 0l37-190h31L37 0H6" id="D"/><path fill="#666" d="M55-144c13 50 104 24 104 88C159 21 15 23 1-39l26-10c6 40 102 42 102-4-13-50-104-23-104-87 0-71 143-71 148-8l-29 4c-5-35-85-37-89 0" id="E"/><g id="e"><use transform="matrix(0.05,0,0,0.05,0,0)" xlink:href="#B"/><use transform="matrix(0.05,0,0,0.05,10.950000000000001,0)" xlink:href="#C"/><use transform="matrix(0.05,0,0,0.05,20.950000000000003,0)" xlink:href="#D"/><use transform="matrix(0.05,0,0,0.05,24.900000000000002,0)" xlink:href="#E"/></g><g id="f"><use transform="matrix(0.05,0,0,0.05,0,0)" xlink:href="#D"/><use transform="matrix(0.05,0,0,0.05,3.95,0)" xlink:href="#E"/></g><path fill="#666" d="M165-48c-4 18 1 34 23 27l-3 20c-29 8-62 0-52-35h-2C116-14 99 4 63 4 30 4 8-16 8-49c0-68 71-67 138-67 10-26 0-56-31-54-26 1-42 9-47 31l-32-5c8-67 160-71 144 15-5 28-9 54-15 81zM42-50c3 52 80 24 89-6 7-12 7-24 11-38-47 1-103-4-100 44" id="F"/><use transform="matrix(0.05,0,0,0.05,0,0)" xlink:href="#F" id="g"/><path fill="#666" d="M44-68c0 29 11 47 38 47 30 0 42-19 51-41l28 9C148-21 126 4 82 4 31 4 10-29 12-85c3-77 74-140 146-93 12 8 15 23 18 40l-31 5c-1-22-13-36-36-36-52 0-65 49-65 101" id="G"/><path fill="#666" d="M6 0l50-261h32L37 0H6" id="H"/><g id="h"><use transform="matrix(0.05,0,0,0.05,0,0)" xlink:href="#G"/><use transform="matrix(0.05,0,0,0.05,9,0)" xlink:href="#H"/><use transform="matrix(0.05,0,0,0.05,12.949999999999998,0)" xlink:href="#F"/><use transform="matrix(0.05,0,0,0.05,22.95,0)" xlink:href="#E"/><use transform="matrix(0.05,0,0,0.05,31.950000000000003,0)" xlink:href="#E"/></g><path d="M127-220V0H93v-220H8v-28h204v28h-85" id="I"/><path d="M84 4C-5 8 30-112 23-190h32v120c0 31 7 50 39 49 72-2 45-101 50-169h31l1 190h-30c-1-10 1-25-2-33-11 22-28 36-60 37" id="J"/><path d="M143 0L79-87 56-68V0H24v-261h32v163l83-92h37l-77 82L181 0h-38" id="K"/><g id="i"><use transform="matrix(0.05,0,0,0.05,0,0)" xlink:href="#I"/><use transform="matrix(0.05,0,0,0.05,10.3,0)" xlink:href="#r"/><use transform="matrix(0.05,0,0,0.05,16.25,0)" xlink:href="#J"/><use transform="matrix(0.05,0,0,0.05,26.25,0)" xlink:href="#n"/><use transform="matrix(0.05,0,0,0.05,35.25,0)" xlink:href="#K"/></g></defs></g></svg>