<svg xmlns="http://www.w3.org/2000/svg" xmlns:xlink="http://www.w3.org/1999/xlink" xmlns:lucid="lucid" width="874" height="203"><g transform="translate(-33 -465)" lucid:page-tab-id=".Q7NWnDmX2BC"><path d="M0 0h1870.4v1323.2H0z" fill="#fff"/><path d="M559.43 556.3c0-2.2 1.54-4.92 3.43-6.06l71.9-43.24c1.88-1.14 4.95-1.14 6.84 0l71.9 43.24c1.88 1.14 3.4 3.86 3.4 6.07v68.64c0 2.2-1.78 4-4 4H563.44c-2.2 0-4-1.8-4-4z" stroke="#000" stroke-width="2" fill="#fff"/><use xlink:href="#a" transform="matrix(1,0,0,1,559.4330708661417,504.93700787401576) translate(41 65.60000000000001)"/><path d="M728.9 541.9h157.5v50.06H728.9z" stroke="#000" fill="#fff"/><use xlink:href="#b" transform="matrix(1,0,0,1,733.9133858267717,546.9092509216474) translate(49.575 24.65)"/><path d="M220.47 508.94c0-2.76 2.24-5 5-5h147.48c2.76 0 5 2.24 5 5v114c0 2.76-2.24 5-5 5H225.47c-2.76 0-5-2.24-5-5z" stroke="#000" stroke-width="2" fill="#666"/><use xlink:href="#c" transform="matrix(1,0,0,1,228.47244094488187,511.9370078740157) translate(22.099999999999994 57.6)"/><use xlink:href="#d" transform="matrix(1,0,0,1,228.47244094488187,511.9370078740157) translate(72 57.6)"/><path d="M389.95 508.94c0-2.76 2.24-5 5-5h147.48c2.76 0 5 2.24 5 5v115c0 2.76-2.24 5-5 5H394.95c-2.76 0-5-2.24-5-5z" stroke="#000" stroke-width="2" fill="#b2b2b2"/><use xlink:href="#e" transform="matrix(1,0,0,1,397.9527559055118,511.9370078740157) translate(16.525 58.1)"/><path d="M51 508.94c0-2.76 2.23-5 5-5h147.47c2.76 0 5 2.24 5 5v115c0 2.76-2.24 5-5 5H56c-2.77 0-5-2.24-5-5z" stroke="#000" stroke-width="2" fill="#fff"/><use xlink:href="#f" transform="matrix(1,0,0,1,58.99212598425196,511.9370078740157) translate(32.599999999999994 58.1)"/><defs><path d="M85-194c31 0 48 13 60 33l-1-100h32l1 261h-30c-2-10 0-23-3-31C134-8 116 4 85 4 32 4 16-35 15-94c0-66 23-100 70-100zm9 24c-40 0-46 34-46 75 0 40 6 74 45 74 42 0 51-32 51-76 0-42-9-74-50-73" id="g"/><path d="M96-169c-40 0-48 33-48 73s9 75 48 75c24 0 41-14 43-38l32 2c-6 37-31 61-74 61-59 0-76-41-82-99-10-93 101-131 147-64 4 7 5 14 7 22l-32 3c-4-21-16-35-41-35" id="h"/><path d="M59-47c-2 24 18 29 38 22v24C64 9 27 4 27-40v-127H5v-23h24l9-43h21v43h35v23H59v120" id="i"/><path d="M33-154v-36h34v36H33zM33 0v-36h34V0H33" id="j"/><path d="M205 0l-28-72H64L36 0H1l101-248h38L239 0h-34zm-38-99l-47-123c-12 45-31 82-46 123h93" id="k"/><path d="M177-190C167-65 218 103 67 71c-23-6-38-20-44-43l32-5c15 47 100 32 89-28v-30C133-14 115 1 83 1 29 1 15-40 15-95c0-56 16-97 71-98 29-1 48 16 59 35 1-10 0-23 2-32h30zM94-22c36 0 50-32 50-73 0-42-14-75-50-75-39 0-46 34-46 75s6 73 46 73" id="l"/><path d="M100-194c63 0 86 42 84 106H49c0 40 14 67 53 68 26 1 43-12 49-29l28 8c-11 28-37 45-77 45C44 4 14-33 15-96c1-61 26-98 85-98zm52 81c6-60-76-77-97-28-3 7-6 17-6 28h103" id="m"/><path d="M117-194c89-4 53 116 60 194h-32v-121c0-31-8-49-39-48C34-167 62-67 57 0H25l-1-190h30c1 10-1 24 2 32 11-22 29-35 61-36" id="n"/><g id="a"><use transform="matrix(0.05,0,0,0.05,0,0)" xlink:href="#g"/><use transform="matrix(0.05,0,0,0.05,10,0)" xlink:href="#h"/><use transform="matrix(0.05,0,0,0.05,19,0)" xlink:href="#i"/><use transform="matrix(0.05,0,0,0.05,24,0)" xlink:href="#j"/><use transform="matrix(0.05,0,0,0.05,29,0)" xlink:href="#k"/><use transform="matrix(0.05,0,0,0.05,41,0)" xlink:href="#l"/><use transform="matrix(0.05,0,0,0.05,51,0)" xlink:href="#m"/><use transform="matrix(0.05,0,0,0.05,61,0)" xlink:href="#n"/><use transform="matrix(0.05,0,0,0.05,71,0)" xlink:href="#i"/></g><path d="M30 0v-248h33v221h125V0H30" id="o"/><path d="M24-231v-30h32v30H24zM24 0v-190h32V0H24" id="p"/><path d="M114-163C36-179 61-72 57 0H25l-1-190h30c1 12-1 29 2 39 6-27 23-49 58-41v29" id="q"/><path d="M141-36C126-15 110 5 73 4 37 3 15-17 15-53c-1-64 63-63 125-63 3-35-9-54-41-54-24 1-41 7-42 31l-33-3c5-37 33-52 76-52 45 0 72 20 72 64v82c-1 20 7 32 28 27v20c-31 9-61-2-59-35zM48-53c0 20 12 33 32 33 41-3 63-29 60-74-43 2-92-5-92 41" id="r"/><path d="M24 0v-261h32V0H24" id="s"/><g id="b"><use transform="matrix(0.05,0,0,0.05,0,0)" xlink:href="#o"/><use transform="matrix(0.05,0,0,0.05,10,0)" xlink:href="#p"/><use transform="matrix(0.05,0,0,0.05,13.949999999999998,0)" xlink:href="#i"/><use transform="matrix(0.05,0,0,0.05,18.95,0)" xlink:href="#m"/><use transform="matrix(0.05,0,0,0.05,28.950000000000003,0)" xlink:href="#q"/><use transform="matrix(0.05,0,0,0.05,34.9,0)" xlink:href="#r"/><use transform="matrix(0.05,0,0,0.05,44.9,0)" xlink:href="#s"/></g><path fill="#fff" d="M212-179c-10-28-35-45-73-45-59 0-87 40-87 99 0 60 29 101 89 101 43 0 62-24 78-52l27 14C228-24 195 4 139 4 59 4 22-46 18-125c-6-104 99-153 187-111 19 9 31 26 39 46" id="t"/><path fill="#fff" d="M24 0v-261h32V0H24" id="u"/><path fill="#fff" d="M141-36C126-15 110 5 73 4 37 3 15-17 15-53c-1-64 63-63 125-63 3-35-9-54-41-54-24 1-41 7-42 31l-33-3c5-37 33-52 76-52 45 0 72 20 72 64v82c-1 20 7 32 28 27v20c-31 9-61-2-59-35zM48-53c0 20 12 33 32 33 41-3 63-29 60-74-43 2-92-5-92 41" id="v"/><path fill="#fff" d="M135-143c-3-34-86-38-87 0 15 53 115 12 119 90S17 21 10-45l28-5c4 36 97 45 98 0-10-56-113-15-118-90-4-57 82-63 122-42 12 7 21 19 24 35" id="w"/><g id="c"><use transform="matrix(0.05,0,0,0.05,0,0)" xlink:href="#t"/><use transform="matrix(0.05,0,0,0.05,12.950000000000001,0)" xlink:href="#u"/><use transform="matrix(0.05,0,0,0.05,16.900000000000002,0)" xlink:href="#v"/><use transform="matrix(0.05,0,0,0.05,26.900000000000002,0)" xlink:href="#w"/><use transform="matrix(0.05,0,0,0.05,35.900000000000006,0)" xlink:href="#w"/></g><path fill="#fff" d="M190 0L58-211 59 0H30v-248h39L202-35l-2-213h31V0h-41" id="x"/><path fill="#fff" d="M210-169c-67 3-38 105-44 169h-31v-121c0-29-5-50-35-48C34-165 62-65 56 0H25l-1-190h30c1 10-1 24 2 32 10-44 99-50 107 0 11-21 27-35 58-36 85-2 47 119 55 194h-31v-121c0-29-5-49-35-48" id="y"/><path fill="#fff" d="M100-194c63 0 86 42 84 106H49c0 40 14 67 53 68 26 1 43-12 49-29l28 8c-11 28-37 45-77 45C44 4 14-33 15-96c1-61 26-98 85-98zm52 81c6-60-76-77-97-28-3 7-6 17-6 28h103" id="z"/><g id="d"><use transform="matrix(0.05,0,0,0.05,0,0)" xlink:href="#x"/><use transform="matrix(0.05,0,0,0.05,12.950000000000001,0)" xlink:href="#v"/><use transform="matrix(0.05,0,0,0.05,22.950000000000003,0)" xlink:href="#y"/><use transform="matrix(0.05,0,0,0.05,37.900000000000006,0)" xlink:href="#z"/></g><path d="M135-143c-3-34-86-38-87 0 15 53 115 12 119 90S17 21 10-45l28-5c4 36 97 45 98 0-10-56-113-15-118-90-4-57 82-63 122-42 12 7 21 19 24 35" id="A"/><path d="M143 0L79-87 56-68V0H24v-261h32v163l83-92h37l-77 82L181 0h-38" id="B"/><path d="M100-194c62-1 85 37 85 99 1 63-27 99-86 99S16-35 15-95c0-66 28-99 85-99zM99-20c44 1 53-31 53-75 0-43-8-75-51-75s-53 32-53 75 10 74 51 75" id="C"/><path d="M212-179c-10-28-35-45-73-45-59 0-87 40-87 99 0 60 29 101 89 101 43 0 62-24 78-52l27 14C228-24 195 4 139 4 59 4 22-46 18-125c-6-104 99-153 187-111 19 9 31 26 39 46" id="D"/><path d="M115-194c55 1 70 41 70 98S169 2 115 4C84 4 66-9 55-30l1 105H24l-1-265h31l2 30c10-21 28-34 59-34zm-8 174c40 0 45-34 45-75s-6-73-45-74c-42 0-51 32-51 76 0 43 10 73 51 73" id="E"/><g id="e"><use transform="matrix(0.05,0,0,0.05,0,0)" xlink:href="#A"/><use transform="matrix(0.05,0,0,0.05,9,0)" xlink:href="#B"/><use transform="matrix(0.05,0,0,0.05,18,0)" xlink:href="#C"/><use transform="matrix(0.05,0,0,0.05,28,0)" xlink:href="#A"/><use transform="matrix(0.05,0,0,0.05,37,0)" xlink:href="#j"/><use transform="matrix(0.05,0,0,0.05,42,0)" xlink:href="#D"/><use transform="matrix(0.05,0,0,0.05,54.95,0)" xlink:href="#C"/><use transform="matrix(0.05,0,0,0.05,64.95,0)" xlink:href="#n"/><use transform="matrix(0.05,0,0,0.05,74.95,0)" xlink:href="#h"/><use transform="matrix(0.05,0,0,0.05,83.95,0)" xlink:href="#m"/><use transform="matrix(0.05,0,0,0.05,93.95,0)" xlink:href="#E"/><use transform="matrix(0.05,0,0,0.05,103.95,0)" xlink:href="#i"/></g><path d="M206 0h-36l-40-164L89 0H53L-1-190h32L70-26l43-164h34l41 164 42-164h31" id="F"/><g id="f"><use transform="matrix(0.05,0,0,0.05,0,0)" xlink:href="#C"/><use transform="matrix(0.05,0,0,0.05,10,0)" xlink:href="#F"/><use transform="matrix(0.05,0,0,0.05,22.950000000000003,0)" xlink:href="#s"/><use transform="matrix(0.05,0,0,0.05,26.900000000000002,0)" xlink:href="#j"/><use transform="matrix(0.05,0,0,0.05,31.900000000000002,0)" xlink:href="#D"/><use transform="matrix(0.05,0,0,0.05,44.85,0)" xlink:href="#s"/><use transform="matrix(0.05,0,0,0.05,48.800000000000004,0)" xlink:href="#r"/><use transform="matrix(0.05,0,0,0.05,58.800000000000004,0)" xlink:href="#A"/><use transform="matrix(0.05,0,0,0.05,67.80000000000001,0)" xlink:href="#A"/></g></defs></g></svg>