<svg xmlns="http://www.w3.org/2000/svg" xmlns:xlink="http://www.w3.org/1999/xlink" xmlns:lucid="lucid" width="980" height="440"><g transform="translate(-319.99999999999994 -80)" lucid:page-tab-id=".TGIrVep.l-n"><path d="M0 0h1870.4v1323.2H0z" fill="#fff"/><path d="M340 260h106.67v80H340z" stroke="#000" fill="#fff"/><use xlink:href="#a" transform="matrix(1,0,0,1,344.99999999999994,265) translate(19.549999999999997 38.6)"/><path d="M560 260h106.67v80H560z" stroke="#000" fill="#fff"/><use xlink:href="#b" transform="matrix(1,0,0,1,565,265) translate(34.05 38.6)"/><path d="M559 300h-88.83" stroke="#000" fill="none"/><path d="M559.5 300.5h-.5v-1h.5z"/><path d="M469.67 312.73L448.15 300l21.52-12.73z" fill="#fff"/><path d="M470.17 313.6l-23-13.6 23-13.6zM449.13 300l20.04 11.85v-23.7z"/><use xlink:href="#c" transform="matrix(1,0,0,1,497.79166666666663,274.4) translate(0 14.4)"/><path d="M560 420h106.67v80H560z" stroke="#000" fill="#fff"/><use xlink:href="#d" transform="matrix(1,0,0,1,565,425) translate(5.574999999999996 38.6)"/><use xlink:href="#e" transform="matrix(1,0,0,1,565,425) translate(62.525 38.6)"/><path d="M613.33 419v-55.5" fill="none"/><path d="M613.33 419v-4.62m0-4.63v-9.25m0-4.62v-9.25m0-4.63v-9.25m0-4.62v-4.63" stroke="#000" fill="none"/><path d="M613.83 419.5h-1v-.5h1z"/><path d="M626.06 363H600.6l12.73-21.52z" fill="#fff"/><path d="M626.94 363.5h-27.2l13.6-23zm-25.46-1h23.7l-11.85-20.04z"/><use xlink:href="#c" transform="matrix(1,0,0,1,621.3333333333334,379.2) translate(0 14.4)"/><path d="M780 260h106.67v80H780z" stroke="#000" fill="#fff"/><use xlink:href="#f" transform="matrix(1,0,0,1,785,265) translate(24.599999999999998 38.6)"/><path d="M667.67 300H778.6" stroke="#000" fill="none"/><path d="M667.68 300.5h-.5v-1h.5zM779.5 300l-17.94 10.6-.5-.85 16.48-9.75-16.5-9.75.52-.86z"/><use xlink:href="#g" transform="matrix(1,0,0,1,687,274.4) translate(0 14.4)"/><use xlink:href="#h" transform="matrix(1,0,0,1,687,274.4) translate(34 14.4)"/><path d="M960.5 120h56.5M960.5 120h-.5" stroke="#000" fill="none"/><path d="M1039.02 120l-21.52 12.73v-25.46z" fill="#fff"/><path d="M1040 120l-23 13.6v-27.2zm-22 11.85l20.04-11.85-20.04-11.85z"/><path d="M960.5 160h78.6M960.5 160h-.5" stroke="#000" fill="none"/><path d="M1040 160l-17.94 10.6-.5-.85 16.48-9.75-16.5-9.75.52-.86z"/><path d="M960.5 200h56.5" fill="none"/><path d="M960.5 200h4.7m4.72 0h9.4m4.72 0h9.42m4.7 0h9.42m4.7 0h4.72M960.5 200h-.5" stroke="#000" fill="none"/><path d="M1039.02 200l-21.52 12.73v-25.46z" fill="#fff"/><path d="M1040 200l-23 13.6v-27.2zm-22 11.85l20.04-11.85-20.04-11.85z"/><path d="M1040 100h240v40h-240z" stroke="#000" stroke-opacity="0" stroke-width="2" fill="#fff" fill-opacity="0"/><use xlink:href="#i" transform="matrix(1,0,0,1,1045,105) translate(0 18.6)"/><path d="M1040 140h240v40h-240z" stroke="#000" stroke-opacity="0" stroke-width="2" fill="#fff" fill-opacity="0"/><use xlink:href="#j" transform="matrix(1,0,0,1,1045,145) translate(0 18.6)"/><path d="M1040 180h240v40h-240z" stroke="#000" stroke-opacity="0" stroke-width="2" fill="#fff" fill-opacity="0"/><use xlink:href="#k" transform="matrix(1,0,0,1,1045,185) translate(0 18.6)"/><path d="M560 100h106.67v80H560z" stroke="#000" fill="#fff"/><use xlink:href="#l" transform="matrix(1,0,0,1,565,105) translate(15.049999999999997 27.799999999999997)"/><use xlink:href="#m" transform="matrix(1,0,0,1,565,105) translate(23.049999999999997 49.4)"/><path d="M613.33 259v-77.6" fill="none"/><path d="M613.33 259v-5.17m0-5.18V238.3m0-5.16V222.8m0-5.18v-10.35m0-5.17v-10.35m0-5.17v-5.17" stroke="#000" fill="none"/><path d="M613.83 259.5h-1v-.5h1zM623.94 198.44l-.86.5-9.75-16.48-9.75 16.5-.86-.52 10.6-17.94z"/><use xlink:href="#g" transform="matrix(1,0,0,1,621.3333333333334,213.86666666666665) translate(0 14.4)"/><use xlink:href="#h" transform="matrix(1,0,0,1,621.3333333333334,213.86666666666665) translate(34 14.4)"/><path d="M960.5 240h78.6" fill="none"/><path d="M960.5 240h5.24m5.24 0h10.48m5.24 0h10.48m5.24 0h10.47m5.23 0h10.48m5.25 0h5.24M960.5 240h-.5" stroke="#000" fill="none"/><path d="M1040 240l-17.94 10.6-.5-.85 16.48-9.75-16.5-9.75.52-.86z"/><path d="M1040 220h240v40h-240z" stroke="#000" stroke-opacity="0" stroke-width="2" fill="#fff" fill-opacity="0"/><g><use xlink:href="#n" transform="matrix(1,0,0,1,1045,225) translate(0 18.6)"/></g><defs><path d="M137 0h-34L2-248h35l83 218 83-218h36" id="o"/><path d="M100-194c63 0 86 42 84 106H49c0 40 14 67 53 68 26 1 43-12 49-29l28 8c-11 28-37 45-77 45C44 4 14-33 15-96c1-61 26-98 85-98zm52 81c6-60-76-77-97-28-3 7-6 17-6 28h103" id="p"/><path d="M106-169C34-169 62-67 57 0H25v-261h32l-1 103c12-21 28-36 61-36 89 0 53 116 60 194h-32v-121c2-32-8-49-39-48" id="q"/><path d="M24-231v-30h32v30H24zM24 0v-190h32V0H24" id="r"/><path d="M96-169c-40 0-48 33-48 73s9 75 48 75c24 0 41-14 43-38l32 2c-6 37-31 61-74 61-59 0-76-41-82-99-10-93 101-131 147-64 4 7 5 14 7 22l-32 3c-4-21-16-35-41-35" id="s"/><path d="M24 0v-261h32V0H24" id="t"/><g id="a"><use transform="matrix(0.05,0,0,0.05,0,0)" xlink:href="#o"/><use transform="matrix(0.05,0,0,0.05,11,0)" xlink:href="#p"/><use transform="matrix(0.05,0,0,0.05,21,0)" xlink:href="#q"/><use transform="matrix(0.05,0,0,0.05,31,0)" xlink:href="#r"/><use transform="matrix(0.05,0,0,0.05,34.95,0)" xlink:href="#s"/><use transform="matrix(0.05,0,0,0.05,43.95,0)" xlink:href="#t"/><use transform="matrix(0.05,0,0,0.05,47.900000000000006,0)" xlink:href="#p"/></g><path d="M212-179c-10-28-35-45-73-45-59 0-87 40-87 99 0 60 29 101 89 101 43 0 62-24 78-52l27 14C228-24 195 4 139 4 59 4 22-46 18-125c-6-104 99-153 187-111 19 9 31 26 39 46" id="u"/><path d="M141-36C126-15 110 5 73 4 37 3 15-17 15-53c-1-64 63-63 125-63 3-35-9-54-41-54-24 1-41 7-42 31l-33-3c5-37 33-52 76-52 45 0 72 20 72 64v82c-1 20 7 32 28 27v20c-31 9-61-2-59-35zM48-53c0 20 12 33 32 33 41-3 63-29 60-74-43 2-92-5-92 41" id="v"/><path d="M114-163C36-179 61-72 57 0H25l-1-190h30c1 12-1 29 2 39 6-27 23-49 58-41v29" id="w"/><g id="b"><use transform="matrix(0.05,0,0,0.05,0,0)" xlink:href="#u"/><use transform="matrix(0.05,0,0,0.05,12.950000000000001,0)" xlink:href="#v"/><use transform="matrix(0.05,0,0,0.05,22.950000000000003,0)" xlink:href="#w"/></g><path d="M135-143c-3-34-86-38-87 0 15 53 115 12 119 90S17 21 10-45l28-5c4 36 97 45 98 0-10-56-113-15-118-90-4-57 82-63 122-42 12 7 21 19 24 35" id="x"/><path d="M205 0l-28-72H64L36 0H1l101-248h38L239 0h-34zm-38-99l-47-123c-12 45-31 82-46 123h93" id="y"/><g id="c"><use transform="matrix(0.05,0,0,0.05,0,0)" xlink:href="#r"/><use transform="matrix(0.05,0,0,0.05,3.95,0)" xlink:href="#x"/><use transform="matrix(0.05,0,0,0.05,12.949999999999998,0)" xlink:href="#y"/></g><path d="M185-189c-5-48-123-54-124 2 14 75 158 14 163 119 3 78-121 87-175 55-17-10-28-26-33-46l33-7c5 56 141 63 141-1 0-78-155-14-162-118-5-82 145-84 179-34 5 7 8 16 11 25" id="z"/><path d="M115-194c55 1 70 41 70 98S169 2 115 4C84 4 66-9 55-30l1 105H24l-1-265h31l2 30c10-21 28-34 59-34zm-8 174c40 0 45-34 45-75s-6-73-45-74c-42 0-51 32-51 76 0 43 10 73 51 73" id="A"/><path d="M100-194c62-1 85 37 85 99 1 63-27 99-86 99S16-35 15-95c0-66 28-99 85-99zM99-20c44 1 53-31 53-75 0-43-8-75-51-75s-53 32-53 75 10 74 51 75" id="B"/><path d="M59-47c-2 24 18 29 38 22v24C64 9 27 4 27-40v-127H5v-23h24l9-43h21v43h35v23H59v120" id="C"/><g id="d"><use transform="matrix(0.05,0,0,0.05,0,0)" xlink:href="#z"/><use transform="matrix(0.05,0,0,0.05,12,0)" xlink:href="#A"/><use transform="matrix(0.05,0,0,0.05,22,0)" xlink:href="#B"/><use transform="matrix(0.05,0,0,0.05,32,0)" xlink:href="#w"/><use transform="matrix(0.05,0,0,0.05,37.95,0)" xlink:href="#C"/><use transform="matrix(0.05,0,0,0.05,42.95,0)" xlink:href="#x"/></g><g id="e"><use transform="matrix(0.05,0,0,0.05,0,0)" xlink:href="#u"/><use transform="matrix(0.05,0,0,0.05,12.950000000000001,0)" xlink:href="#v"/><use transform="matrix(0.05,0,0,0.05,22.950000000000003,0)" xlink:href="#w"/></g><path d="M30-248c118-7 216 8 213 122C240-48 200 0 122 0H30v-248zM63-27c89 8 146-16 146-99s-60-101-146-95v194" id="D"/><path d="M108 0H70L1-190h34L89-25l56-165h34" id="E"/><g id="f"><use transform="matrix(0.05,0,0,0.05,0,0)" xlink:href="#D"/><use transform="matrix(0.05,0,0,0.05,12.950000000000001,0)" xlink:href="#w"/><use transform="matrix(0.05,0,0,0.05,18.900000000000002,0)" xlink:href="#r"/><use transform="matrix(0.05,0,0,0.05,22.85,0)" xlink:href="#E"/><use transform="matrix(0.05,0,0,0.05,31.85,0)" xlink:href="#p"/><use transform="matrix(0.05,0,0,0.05,41.85,0)" xlink:href="#w"/></g><g id="g"><use transform="matrix(0.05,0,0,0.05,0,0)" xlink:href="#q"/><use transform="matrix(0.05,0,0,0.05,10,0)" xlink:href="#v"/><use transform="matrix(0.05,0,0,0.05,20,0)" xlink:href="#x"/></g><path d="M26 75v-336h71v23H56V52h41v23H26" id="F"/><path d="M27 0v-27h64v-190l-56 39v-29l58-41h29v221h61V0H27" id="G"/><path d="M3 75V52h41v-290H3v-23h71V75H3" id="H"/><g id="h"><use transform="matrix(0.05,0,0,0.05,0,0)" xlink:href="#F"/><use transform="matrix(0.05,0,0,0.05,5,0)" xlink:href="#G"/><use transform="matrix(0.05,0,0,0.05,15,0)" xlink:href="#H"/></g><path fill="#666" d="M14 0l48-248h34L48 0H14" id="I"/><path fill="#666" d="M67-158c22-48 132-52 116 29L158 0h-32l25-140c3-38-53-32-70-12C52-117 51-52 38 0H6l36-190h30" id="J"/><path fill="#666" d="M67-158c15-20 31-36 64-36 94 0 33 127 27 194h-32l25-140c3-38-53-32-70-12C52-117 51-51 37 0H6l51-261h31" id="K"/><path fill="#666" d="M111-194c62-3 86 47 72 106H45c-7 38 6 69 45 68 27-1 43-14 53-32l24 11C152-15 129 4 87 4 38 3 12-23 12-71c0-70 32-119 99-123zm44 81c14-66-71-72-95-28-4 8-8 17-11 28h106" id="L"/><path fill="#666" d="M66-151c12-25 30-51 66-40l-6 26C45-176 58-65 38 0H6l36-190h30" id="M"/><path fill="#666" d="M50-231l6-30h32l-6 30H50zM6 0l37-190h31L37 0H6" id="N"/><path fill="#666" d="M51-54c-9 22 5 41 31 30L79-1C43 14 10-4 19-52l22-115H19l5-23h22l19-43h21l-9 43h35l-4 23H73" id="O"/><path fill="#666" d="M165-48c-4 18 1 34 23 27l-3 20c-29 8-62 0-52-35h-2C116-14 99 4 63 4 30 4 8-16 8-49c0-68 71-67 138-67 10-26 0-56-31-54-26 1-42 9-47 31l-32-5c8-67 160-71 144 15-5 28-9 54-15 81zM42-50c3 52 80 24 89-6 7-12 7-24 11-38-47 1-103-4-100 44" id="P"/><path fill="#666" d="M44-68c0 29 11 47 38 47 30 0 42-19 51-41l28 9C148-21 126 4 82 4 31 4 10-29 12-85c3-77 74-140 146-93 12 8 15 23 18 40l-31 5c-1-22-13-36-36-36-52 0-65 49-65 101" id="Q"/><g id="i"><use transform="matrix(0.05,0,0,0.05,0,0)" xlink:href="#I"/><use transform="matrix(0.05,0,0,0.05,5,0)" xlink:href="#J"/><use transform="matrix(0.05,0,0,0.05,15,0)" xlink:href="#K"/><use transform="matrix(0.05,0,0,0.05,25,0)" xlink:href="#L"/><use transform="matrix(0.05,0,0,0.05,35,0)" xlink:href="#M"/><use transform="matrix(0.05,0,0,0.05,40.95,0)" xlink:href="#N"/><use transform="matrix(0.05,0,0,0.05,44.900000000000006,0)" xlink:href="#O"/><use transform="matrix(0.05,0,0,0.05,49.900000000000006,0)" xlink:href="#P"/><use transform="matrix(0.05,0,0,0.05,59.900000000000006,0)" xlink:href="#J"/><use transform="matrix(0.05,0,0,0.05,69.9,0)" xlink:href="#Q"/><use transform="matrix(0.05,0,0,0.05,78.9,0)" xlink:href="#L"/></g><path fill="#666" d="M187 0l-14-72H61L19 0h-37l149-248h38L221 0h-34zm-19-99l-22-123L76-99h92" id="R"/><path fill="#666" d="M55-144c13 50 104 24 104 88C159 21 15 23 1-39l26-10c6 40 102 42 102-4-13-50-104-23-104-87 0-71 143-71 148-8l-29 4c-5-35-85-37-89 0" id="S"/><path fill="#666" d="M30-147c31-64 166-65 159 27C183-49 158 1 86 4 9 8 1-88 30-147zM88-20c53 0 68-48 68-100 0-31-11-51-44-50-52 1-68 46-68 97 0 32 13 53 44 53" id="T"/><g id="j"><use transform="matrix(0.05,0,0,0.05,0,0)" xlink:href="#R"/><use transform="matrix(0.05,0,0,0.05,12,0)" xlink:href="#S"/><use transform="matrix(0.05,0,0,0.05,21,0)" xlink:href="#S"/><use transform="matrix(0.05,0,0,0.05,30,0)" xlink:href="#T"/><use transform="matrix(0.05,0,0,0.05,40,0)" xlink:href="#Q"/><use transform="matrix(0.05,0,0,0.05,49,0)" xlink:href="#N"/><use transform="matrix(0.05,0,0,0.05,52.95,0)" xlink:href="#P"/><use transform="matrix(0.05,0,0,0.05,62.95,0)" xlink:href="#O"/><use transform="matrix(0.05,0,0,0.05,67.95,0)" xlink:href="#N"/><use transform="matrix(0.05,0,0,0.05,71.9,0)" xlink:href="#T"/><use transform="matrix(0.05,0,0,0.05,81.9,0)" xlink:href="#J"/></g><path fill="#666" d="M248-111c6-24 9-61-24-58-72 9-57 108-77 169h-31l26-142c3-37-50-30-64-10C52-115 50-51 37 0H6l36-190h30c-1 10-6 24-4 32 13-43 101-52 105 5 13-22 29-41 61-41 90 0 28 129 23 194h-31" id="U"/><path fill="#666" d="M67-162c32-53 139-36 121 50C175-51 163 2 97 4 68 4 52-11 42-31 38 6 28 39 22 75H-9l50-265h29c-1 10 0 20-3 28zm89 36c0-26-10-43-35-43-54 0-67 50-69 103-1 29 14 45 42 46 53 0 62-58 62-106" id="V"/><path fill="#666" d="M6 0l50-261h32L37 0H6" id="W"/><g id="k"><use transform="matrix(0.05,0,0,0.05,0,0)" xlink:href="#I"/><use transform="matrix(0.05,0,0,0.05,5,0)" xlink:href="#U"/><use transform="matrix(0.05,0,0,0.05,19.950000000000003,0)" xlink:href="#V"/><use transform="matrix(0.05,0,0,0.05,29.950000000000003,0)" xlink:href="#W"/><use transform="matrix(0.05,0,0,0.05,33.900000000000006,0)" xlink:href="#L"/><use transform="matrix(0.05,0,0,0.05,43.900000000000006,0)" xlink:href="#U"/><use transform="matrix(0.05,0,0,0.05,58.85,0)" xlink:href="#L"/><use transform="matrix(0.05,0,0,0.05,68.85000000000001,0)" xlink:href="#J"/><use transform="matrix(0.05,0,0,0.05,78.85000000000001,0)" xlink:href="#O"/><use transform="matrix(0.05,0,0,0.05,83.85000000000001,0)" xlink:href="#P"/><use transform="matrix(0.05,0,0,0.05,93.85000000000001,0)" xlink:href="#O"/><use transform="matrix(0.05,0,0,0.05,98.85000000000001,0)" xlink:href="#N"/><use transform="matrix(0.05,0,0,0.05,102.80000000000001,0)" xlink:href="#T"/><use transform="matrix(0.05,0,0,0.05,112.80000000000001,0)" xlink:href="#J"/></g><path d="M117-194c89-4 53 116 60 194h-32v-121c0-31-8-49-39-48C34-167 62-67 57 0H25l-1-190h30c1 10-1 24 2 32 11-22 29-35 61-36" id="X"/><path d="M177-190C167-65 218 103 67 71c-23-6-38-20-44-43l32-5c15 47 100 32 89-28v-30C133-14 115 1 83 1 29 1 15-40 15-95c0-56 16-97 71-98 29-1 48 16 59 35 1-10 0-23 2-32h30zM94-22c36 0 50-32 50-73 0-42-14-75-50-75-39 0-46 34-46 75s6 73 46 73" id="Y"/><g id="l"><use transform="matrix(0.05,0,0,0.05,0,0)" xlink:href="#z"/><use transform="matrix(0.05,0,0,0.05,12,0)" xlink:href="#C"/><use transform="matrix(0.05,0,0,0.05,17,0)" xlink:href="#p"/><use transform="matrix(0.05,0,0,0.05,27,0)" xlink:href="#p"/><use transform="matrix(0.05,0,0,0.05,37,0)" xlink:href="#w"/><use transform="matrix(0.05,0,0,0.05,42.95,0)" xlink:href="#r"/><use transform="matrix(0.05,0,0,0.05,46.900000000000006,0)" xlink:href="#X"/><use transform="matrix(0.05,0,0,0.05,56.900000000000006,0)" xlink:href="#Y"/></g><path d="M266 0h-40l-56-210L115 0H75L2-248h35L96-30l15-64 43-154h32l59 218 59-218h35" id="Z"/><g id="m"><use transform="matrix(0.05,0,0,0.05,0,0)" xlink:href="#Z"/><use transform="matrix(0.05,0,0,0.05,16.95,0)" xlink:href="#q"/><use transform="matrix(0.05,0,0,0.05,26.950000000000003,0)" xlink:href="#p"/><use transform="matrix(0.05,0,0,0.05,36.95,0)" xlink:href="#p"/><use transform="matrix(0.05,0,0,0.05,46.95,0)" xlink:href="#t"/></g><path fill="#666" d="M248-139C247-14 144 9 11 0l48-248c105-6 190 8 189 109zm-34 0c1-70-52-87-126-82L50-27c98 7 163-21 164-112" id="aa"/><path fill="#666" d="M133-28C103 26-5 8 13-77c13-62 24-115 90-117 29-1 46 15 56 35l19-102h32L160 0h-30zM45-64c-2 27 10 43 35 43 54-1 69-50 69-103 0-29-15-46-42-46-53-1-58 58-62 106" id="ab"/><path fill="#666" d="M198-190L69 30C53 58 25 83-20 72c4-11-1-27 19-22 33-1 43-29 59-52L20-190h32L79-34l84-156h35" id="ac"/><g id="n"><use transform="matrix(0.05,0,0,0.05,0,0)" xlink:href="#aa"/><use transform="matrix(0.05,0,0,0.05,12.950000000000001,0)" xlink:href="#L"/><use transform="matrix(0.05,0,0,0.05,22.950000000000003,0)" xlink:href="#V"/><use transform="matrix(0.05,0,0,0.05,32.95,0)" xlink:href="#L"/><use transform="matrix(0.05,0,0,0.05,42.95,0)" xlink:href="#J"/><use transform="matrix(0.05,0,0,0.05,52.95,0)" xlink:href="#ab"/><use transform="matrix(0.05,0,0,0.05,62.95,0)" xlink:href="#L"/><use transform="matrix(0.05,0,0,0.05,72.95,0)" xlink:href="#J"/><use transform="matrix(0.05,0,0,0.05,82.95,0)" xlink:href="#Q"/><use transform="matrix(0.05,0,0,0.05,91.95,0)" xlink:href="#ac"/></g></defs></g></svg>