<svg xmlns="http://www.w3.org/2000/svg" xmlns:xlink="http://www.w3.org/1999/xlink" xmlns:lucid="lucid" width="426.67" height="120"><g transform="translate(-540 -240)" lucid:page-tab-id="y5HIsFtu6FWl"><path d="M0 0h1870.4v1323.2H0z" fill="#fff"/><path d="M560 260h106.67v80H560z" stroke="#000" fill="#fff"/><use xlink:href="#a" transform="matrix(1,0,0,1,565,265) translate(34.05 38.6)"/><path d="M840 260h106.67v80H840z" stroke="#000" fill="#fff"/><use xlink:href="#b" transform="matrix(1,0,0,1,845,265) translate(31.049999999999997 38.6)"/><path d="M667.67 300H838.6" stroke="#000" fill="none"/><path d="M667.68 300.5h-.5v-1h.5zM839.5 300l-17.94 10.6-.5-.85 16.48-9.75-16.5-9.75.52-.86z"/><use xlink:href="#c" transform="matrix(1,0,0,1,680.3333333333334,274.4) translate(0 14.4)"/><path d="M787 269h40v53.2h-40z" fill="#fff" fill-opacity="0"/><use xlink:href="#d" transform="matrix(1,0,0,1,792,274) translate(0 14.4)"/><defs><path d="M212-179c-10-28-35-45-73-45-59 0-87 40-87 99 0 60 29 101 89 101 43 0 62-24 78-52l27 14C228-24 195 4 139 4 59 4 22-46 18-125c-6-104 99-153 187-111 19 9 31 26 39 46" id="e"/><path d="M141-36C126-15 110 5 73 4 37 3 15-17 15-53c-1-64 63-63 125-63 3-35-9-54-41-54-24 1-41 7-42 31l-33-3c5-37 33-52 76-52 45 0 72 20 72 64v82c-1 20 7 32 28 27v20c-31 9-61-2-59-35zM48-53c0 20 12 33 32 33 41-3 63-29 60-74-43 2-92-5-92 41" id="f"/><path d="M114-163C36-179 61-72 57 0H25l-1-190h30c1 12-1 29 2 39 6-27 23-49 58-41v29" id="g"/><g id="a"><use transform="matrix(0.05,0,0,0.05,0,0)" xlink:href="#e"/><use transform="matrix(0.05,0,0,0.05,12.950000000000001,0)" xlink:href="#f"/><use transform="matrix(0.05,0,0,0.05,22.950000000000003,0)" xlink:href="#g"/></g><path d="M127-220V0H93v-220H8v-28h204v28h-85" id="h"/><path d="M179-190L93 31C79 59 56 82 12 73V49c39 6 53-20 64-50L1-190h34L92-34l54-156h33" id="i"/><path d="M100-194c63 0 86 42 84 106H49c0 40 14 67 53 68 26 1 43-12 49-29l28 8c-11 28-37 45-77 45C44 4 14-33 15-96c1-61 26-98 85-98zm52 81c6-60-76-77-97-28-3 7-6 17-6 28h103" id="j"/><g id="b"><use transform="matrix(0.05,0,0,0.05,0,0)" xlink:href="#h"/><use transform="matrix(0.05,0,0,0.05,9.950000000000001,0)" xlink:href="#i"/><use transform="matrix(0.05,0,0,0.05,18.950000000000003,0)" xlink:href="#g"/><use transform="matrix(0.05,0,0,0.05,24.900000000000002,0)" xlink:href="#j"/></g><path d="M101-251c68 0 85 55 85 127S166 4 100 4C33 4 14-52 14-124c0-73 17-127 87-127zm-1 229c47 0 54-49 54-102s-4-102-53-102c-51 0-55 48-55 102 0 53 5 102 54 102" id="k"/><path d="M33 0v-38h34V0H33" id="l"/><path d="M27 0v-27h64v-190l-56 39v-29l58-41h29v221h61V0H27" id="m"/><g id="c"><use transform="matrix(0.05,0,0,0.05,0,0)" xlink:href="#k"/><use transform="matrix(0.05,0,0,0.05,10,0)" xlink:href="#l"/><use transform="matrix(0.05,0,0,0.05,15,0)" xlink:href="#l"/><use transform="matrix(0.05,0,0,0.05,20,0)" xlink:href="#m"/></g><path d="M26 75v-336h71v23H56V52h41v23H26" id="n"/><path d="M155-56V0h-30v-56H8v-25l114-167h33v167h35v25h-35zm-30-156c-27 46-58 90-88 131h88v-131" id="o"/><path d="M3 75V52h41v-290H3v-23h71V75H3" id="p"/><g id="d"><use transform="matrix(0.05,0,0,0.05,0,0)" xlink:href="#n"/><use transform="matrix(0.05,0,0,0.05,5,0)" xlink:href="#o"/><use transform="matrix(0.05,0,0,0.05,15,0)" xlink:href="#p"/></g></defs></g></svg>